HIERARCHY
ROOT Hips
{
  OFFSET 50.8468 84.7368 36.1938
  CHANNELS 6 Xposition Yposition Zposition Zrotation Xrotation Yrotation
  JOINT spine
  {
    OFFSET 0 5.95438 0.342407
    CHANNELS 3 Zrotation Xrotation Yrotation
    JOINT spine1
    {
      OFFSET 0 8.85602 0
      CHANNELS 3 Zrotation Xrotation Yrotation
      JOINT spine2
      {
        OFFSET 0 8.48567 0
        CHANNELS 3 Zrotation Xrotation Yrotation
        JOINT Neck
        {
          OFFSET 0 21.7863 1.0387
          CHANNELS 3 Zrotation Xrotation Yrotation
          JOINT Head
          {
            OFFSET 0 6.5822 0
            CHANNELS 3 Zrotation Xrotation Yrotation
            End Site
            {
              OFFSET 0 15.9326 -5.25436
            }
          }
        }
        JOINT RightShoulder
        {
          OFFSET -3.57307 9.16386 -0.497525
          CHANNELS 3 Zrotation Xrotation Yrotation
          JOINT RightArm
          {
            OFFSET 0 12.0192 0
            CHANNELS 3 Zrotation Xrotation Yrotation
            JOINT RightArmRoll
            {
              OFFSET 0 6.06754 0
              CHANNELS 3 Zrotation Xrotation Yrotation
              JOINT RightForeArm
              {
                OFFSET 0 17.6726 0
                CHANNELS 3 Zrotation Xrotation Yrotation
                JOINT RightForeArmRoll
                {
                  OFFSET 0 6.80872 0
                  CHANNELS 3 Zrotation Xrotation Yrotation
                  JOINT RightHand
                  {
                    OFFSET 0 13.6636 0
                    CHANNELS 3 Zrotation Xrotation Yrotation
                    End Site
                    {
                      OFFSET 0 0 0
                    }
                  }
                }
              }
            }
          }
        }
        JOINT LeftShoulder
        {
          OFFSET 3.57307 9.16386 -0.497525
          CHANNELS 3 Zrotation Xrotation Yrotation
          JOINT LeftArm
          {
            OFFSET 0 12.0192 0
            CHANNELS 3 Zrotation Xrotation Yrotation
            JOINT LeftArmRoll
            {
              OFFSET 0 6.06755 0
              CHANNELS 3 Zrotation Xrotation Yrotation
              JOINT LeftForeArm
              {
                OFFSET 0 17.6726 0
                CHANNELS 3 Zrotation Xrotation Yrotation
                JOINT LeftForeArmRoll
                {
                  OFFSET 0 6.80872 0
                  CHANNELS 3 Zrotation Xrotation Yrotation
                  JOINT LeftHand
                  {
                    OFFSET 0 13.6636 0
                    CHANNELS 3 Zrotation Xrotation Yrotation
                    End Site
                    {
                      OFFSET 0 0 0
                    }
                  }
                }
              }
            }
          }
        }
      }
    }
  }
  JOINT RightUpLeg
  {
    OFFSET -5.27774 -0.967797 -0.811858
    CHANNELS 3 Zrotation Xrotation Yrotation
    JOINT RightUpLegRoll
    {
      OFFSET 0 16.0214 0
      CHANNELS 3 Zrotation Xrotation Yrotation
      JOINT RightLeg
      {
        OFFSET 0 -19.8401 0
        CHANNELS 3 Zrotation Xrotation Yrotation
        JOINT RightLegRoll
        {
          OFFSET 0 19.905 0
          CHANNELS 3 Zrotation Xrotation Yrotation
          JOINT RightFoot
          {
            OFFSET 0 16.5675 0
            CHANNELS 3 Zrotation Xrotation Yrotation
            JOINT RightToeBase
            {
              OFFSET 0 13.8496 0
              CHANNELS 3 Zrotation Xrotation Yrotation
              End Site
              {
                OFFSET 0.00587034 6.70727 -0.773117
              }
            }
          }
        }
      }
    }
  }
  JOINT LeftUpLeg
  {
    OFFSET 5.27774 -0.967797 -0.811858
    CHANNELS 3 Zrotation Xrotation Yrotation
    JOINT LeftUpLegRoll
    {
      OFFSET 0 16.0215 0
      CHANNELS 3 Zrotation Xrotation Yrotation
      JOINT LeftLeg
      {
        OFFSET 0 19.84 0
        CHANNELS 3 Zrotation Xrotation Yrotation
        JOINT LeftLegRoll
        {
          OFFSET 0 20.089 0
          CHANNELS 3 Zrotation Xrotation Yrotation
          JOINT LeftFoot
          {
            OFFSET 0 16.3835 0
            CHANNELS 3 Zrotation Xrotation Yrotation
            JOINT LeftToeBase
            {
              OFFSET 0 13.8496 0
              CHANNELS 3 Zrotation Xrotation Yrotation
              End Site
              {
                OFFSET -0.0263083 6.70727 -0.773117
              }
            }
          }
        }
      }
    }
  }
}
MOTION
Frames: 11
Frame Time: 0.00208333
51.2423 54.275 -5.13198 2.48576 -24.0614 5.57072 -1.23729 -0.996538 -0.858673 -2.48172 2.02584 -1.5787 -2.46512 3.66978 -1.53779 1.67238 40.7987 -0.644551 0.558351 1.39231 0.333293 101.754 6.90483 -3.16464 75.695 18.0368 18.8102 4.88938e-006 4.19462e-006 7.03113e-006 -3.63863 -0.0253939 -1.99231 -4.11978e-006 -2.13651e-006 -3.01161 8.03009 -4.95138 0.69762 -77.7013 -5.18322 4.24483 -89.8779 32.2894 -3.7843 4.77083e-015 1.90833e-014 2.38542e-015 3.65244 -0.0274289 1.99258 1.37816e-005 -1.17915e-006 3.01161 -8.03009 -4.95139 -0.697626 169.038 66.5008 4.40879 180 1.52483e-005 177.876 -49.5066 78.4732 52.4585 -4.59875e-006 -2.04132e-007 2.86337 -17.4915 64.9212 17.2243 8.13649 25.2327 -3.48774 -178.8 66.2366 2.95065 4.54188e-006 -4.6773e-006 -2.45623 126.631 -81.2288 123.017 5.07691e-006 2.71053e-007 -2.56582 15.4962 59.1969 -13.9988 -8.13648 25.2326 3.48774 
51.2361 54.2706 -5.14098 2.42279 -24.1103 5.54618 -1.22444 -0.982497 -0.856987 -2.45585 2.05375 -1.57639 -2.43927 3.69771 -1.53595 1.69165 40.7938 -0.657701 0.55716 1.35719 0.330892 101.738 6.92662 -3.15801 75.7063 18.0774 18.793 4.88938e-006 4.19462e-006 7.03113e-006 -3.63863 -0.0253967 -1.99231 -4.11978e-006 -2.13651e-006 -3.01161 8.03009 -4.95138 0.69762 -77.6884 -5.17317 4.23992 -89.8927 32.2986 -3.76945 -1.59028e-015 1.90833e-014 -7.95139e-015 3.65281 -0.0274289 1.99258 1.37816e-005 -1.17915e-006 3.01161 -8.03009 -4.95139 -0.697626 169.17 66.4577 4.33496 180 1.52483e-005 177.872 -49.4851 78.482 52.4272 -4.59875e-006 -2.04132e-007 2.86441 -17.4932 64.9238 17.2253 8.13649 25.2327 -3.48774 -178.7 66.2023 2.90973 4.54188e-006 -4.6773e-006 -2.45709 126.569 -81.2111 122.942 5.07691e-006 2.71053e-007 -2.56727 15.4993 59.1954 -13.9974 -8.13648 25.2326 3.48774 
51.2449 54.2712 -5.14195 2.35739 -24.1616 5.52077 -1.21112 -0.968038 -0.855332 -2.42903 2.08249 -1.57416 -2.41246 3.72646 -1.53421 1.71005 40.7871 -0.670355 0.556382 1.32364 0.328499 101.721 6.949 -3.15125 75.7179 18.1183 18.7756 4.88938e-006 4.19462e-006 7.03113e-006 -3.63863 -0.0254008 -1.99231 -4.11978e-006 -2.13651e-006 -3.01161 8.03009 -4.95138 0.69762 -77.6759 -5.16348 4.23518 -89.9072 32.3079 -3.7549 -3.18055e-015 1.59028e-014 -7.95139e-015 3.6532 -0.0274289 1.99258 1.37816e-005 -1.17915e-006 3.01161 -8.03009 -4.95139 -0.697626 169.306 66.4122 4.25821 180 1.52482e-005 177.868 -49.4627 78.491 52.3948 -4.59875e-006 -2.04132e-007 2.86553 -17.4949 64.9266 17.2263 8.13649 25.2327 -3.48774 -178.596 66.166 2.86748 4.54188e-006 -4.6773e-006 -2.45801 126.505 -81.1927 122.866 5.07691e-006 2.71053e-007 -2.56873 15.5025 59.1939 -13.996 -8.13648 25.2326 3.48774 
51.0802 54.2477 -5.12802 2.29029 -24.2144 5.49473 -1.19747 -0.953287 -0.853699 -2.40154 2.11181 -1.57199 -2.385 3.7558 -1.53254 1.72784 40.7792 -0.682661 0.555892 1.29118 0.326113 101.704 6.97179 -3.14438 75.7296 18.1593 18.7581 4.88938e-006 4.19462e-006 7.03113e-006 -3.63863 -0.0254058 -1.99231 -4.11978e-006 -2.13651e-006 -3.01161 8.03009 -4.95138 0.69762 -77.6637 -5.15403 4.23058 -89.9213 32.3173 -3.74057 1.59028e-015 1.90833e-014 -0 3.6536 -0.0274289 1.99258 1.37816e-005 -1.17915e-006 3.01161 -8.03009 -4.95139 -0.697626 169.446 66.365 4.17952 180 1.52482e-005 177.864 -49.4399 78.5003 52.3617 -4.59875e-006 -2.04132e-007 2.86669 -17.4967 64.9295 17.2274 8.13649 25.2327 -3.48774 -178.49 66.1284 2.82433 4.54188e-006 -4.6773e-006 -2.45896 126.439 -81.1738 122.788 5.07691e-006 2.71053e-007 -2.57021 15.5058 59.1923 -13.9946 -8.13648 25.2326 3.48774 
51.1091 54.2538 -5.13194 2.22217 -24.2682 5.46834 -1.18363 -0.938369 -0.852077 -2.37368 2.14146 -1.56986 -2.35715 3.78547 -1.53091 1.74527 40.7707 -0.694767 0.555566 1.25935 0.323729 101.688 6.99482 -3.13747 75.7414 18.2005 18.7405 4.88938e-006 4.19462e-006 7.03113e-006 -3.63863 -0.0254113 -1.99231 -4.11978e-006 -2.13651e-006 -3.01161 8.03009 -4.95138 0.69762 -77.6517 -5.14473 4.22604 -89.9353 32.3268 -3.72637 -1.74931e-014 -6.36111e-015 -1.98785e-014 3.65401 -0.0274289 1.99258 1.37816e-005 -1.17915e-006 3.01161 -8.03009 -4.95139 -0.697626 169.588 66.3168 4.09987 180 1.52481e-005 177.86 -49.4167 78.5096 52.3282 -4.59875e-006 -2.04132e-007 2.86789 -17.4985 64.9324 17.2284 8.13649 25.2327 -3.48774 -178.382 66.09 2.78073 4.54188e-006 -4.6773e-006 -2.45993 126.373 -81.1546 122.709 5.07691e-006 2.71053e-007 -2.5717 15.5091 59.1906 -13.9931 -8.13648 25.2326 3.48774 
51.2432 54.2704 -5.12578 2.15377 -24.3222 5.44184 -1.16974 -0.92341 -0.850459 -2.34572 2.1712 -1.56773 -2.32921 3.81523 -1.52929 1.76262 40.762 -0.70682 0.555279 1.22767 0.321346 101.671 7.0179 -3.13054 75.7533 18.2417 18.723 4.88938e-006 4.19462e-006 7.03113e-006 -3.63863 -0.025417 -1.99231 -4.11978e-006 -2.13651e-006 -3.01161 8.03009 -4.95138 0.69762 -77.6397 -5.13546 4.22153 -89.9493 32.3363 -3.71218 -4.77083e-015 2.22639e-014 -4.77083e-015 3.65442 -0.0274288 1.99258 1.37816e-005 -1.17915e-006 3.01161 -8.03009 -4.95139 -0.697626 169.73 66.2684 4.02021 180 1.52481e-005 177.856 -49.3935 78.5189 52.2945 -4.59875e-006 -2.04132e-007 2.86909 -17.5003 64.9354 17.2295 8.13649 25.2327 -3.48774 -178.275 66.0513 2.73712 4.54188e-006 -4.6773e-006 -2.46091 126.307 -81.1352 122.63 5.07691e-006 2.71053e-007 -2.57319 15.5125 59.189 -13.9916 -8.13648 25.2326 3.48774 
51.1938 54.2625 -5.12694 2.08578 -24.3757 5.4155 -1.15595 -0.908534 -0.848835 -2.31796 2.20076 -1.56558 -2.30146 3.84481 -1.52765 1.78014 40.7536 -0.71897 0.554906 1.19568 0.318962 101.654 7.04087 -3.12364 75.7651 18.2829 18.7054 4.88938e-006 4.19462e-006 7.03113e-006 -3.63863 -0.0254224 -1.99231 -4.11978e-006 -2.13651e-006 -3.01161 8.03009 -4.95138 0.69762 -77.6276 -5.12613 4.21697 -89.9634 32.3458 -3.69794 6.36111e-015 3.18055e-015 5.56597e-015 3.65483 -0.0274288 1.99258 1.37816e-005 -1.17915e-006 3.01161 -8.03009 -4.95139 -0.697626 169.87 66.2203 3.94148 180 1.52481e-005 177.852 -49.3703 78.5282 52.2609 -4.59875e-006 -2.04132e-007 2.87028 -17.5021 64.9383 17.2305 8.13649 25.2327 -3.48774 -178.168 66.0131 2.69393 4.54188e-006 -4.6773e-006 -2.46188 126.242 -81.116 122.552 5.07691e-006 2.71053e-007 -2.57467 15.5158 59.1873 -13.9902 -8.13648 25.2326 3.48774 
51.1689 54.2603 -5.12453 2.01894 -24.4281 5.38957 -1.1424 -0.893866 -0.847196 -2.29067 2.22992 -1.5634 -2.27419 3.87399 -1.52596 1.79808 40.7461 -0.731363 0.554322 1.16291 0.316574 101.637 7.06354 -3.11681 75.7769 18.3239 18.6879 4.88938e-006 4.19462e-006 7.03113e-006 -3.63863 -0.0254271 -1.99231 -4.11978e-006 -2.13651e-006 -3.01161 8.03009 -4.95138 0.69762 -77.6153 -5.11661 4.21233 -89.9776 32.3552 -3.68354 3.18055e-015 2.8625e-014 4.77083e-015 3.65522 -0.0274288 1.99258 1.37816e-005 -1.17915e-006 3.01161 -8.03009 -4.95139 -0.697626 170.008 66.1734 3.86461 180 1.5248e-005 177.848 -49.3474 78.5374 52.2279 -4.59875e-006 -2.04132e-007 2.87143 -17.5038 64.9412 17.2316 8.13649 25.2327 -3.48774 -178.063 65.9758 2.65159 4.54188e-006 -4.6773e-006 -2.46282 126.179 -81.0972 122.475 5.07691e-006 2.71053e-007 -2.57615 15.5191 59.1857 -13.9887 -8.13648 25.2326 3.48774 
51.1689 54.2606 -5.12347 1.95396 -24.4787 5.36432 -1.12923 -0.879532 -0.845532 -2.26414 2.25841 -1.56115 -2.24768 3.90249 -1.52419 1.81672 40.7399 -0.744149 0.553403 1.12889 0.31418 101.621 7.08575 -3.11008 75.7886 18.3648 18.6706 4.88938e-006 4.19462e-006 7.03113e-006 -3.63863 -0.0254308 -1.99231 -4.11978e-006 -2.13651e-006 -3.01161 8.03009 -4.95138 0.69762 -77.6027 -5.10681 4.20755 -89.9922 32.3644 -3.66888 -1.59028e-015 6.36111e-015 -0 3.65561 -0.0274288 1.99258 1.37816e-005 -1.17915e-006 3.01161 -8.03009 -4.95139 -0.697626 170.141 66.1284 3.79052 180 1.5248e-005 177.844 -49.325 78.5463 52.1955 -4.59875e-006 -2.04132e-007 2.87252 -17.5055 64.9439 17.2326 8.13649 25.2327 -3.48774 -177.961 65.94 2.61051 4.54188e-006 -4.6773e-006 -2.46373 126.117 -81.0789 122.401 5.07691e-006 2.71053e-007 -2.5776 15.5223 59.1842 -13.9873 -8.13648 25.2326 3.48774 
51.2505 54.26 -5.12798 1.89156 -24.5267 5.34 -1.11657 -0.865657 -0.843834 -2.23867 2.28599 -1.55881 -2.22222 3.93009 -1.52231 1.83631 40.7356 -0.757478 0.552022 1.09314 0.311778 101.605 7.10731 -3.1035 75.8 18.4053 18.6535 4.88938e-006 4.19462e-006 7.03113e-006 -3.63863 -0.025433 -1.99231 -4.11978e-006 -2.13651e-006 -3.01161 8.03009 -4.95138 0.69762 -77.5896 -5.09662 4.20257 -90.0072 32.3735 -3.65388 4.77083e-015 9.54166e-015 3.18055e-015 3.65597 -0.0274288 1.99258 1.37816e-005 -1.17915e-006 3.01161 -8.03009 -4.95139 -0.697626 170.268 66.086 3.72009 180 1.5248e-005 177.84 -49.3032 78.5549 52.1642 -4.59875e-006 -2.04132e-007 2.87354 -17.5072 64.9465 17.2335 8.13649 25.2327 -3.48774 -177.863 65.9064 2.5711 4.54188e-006 -4.6773e-006 -2.46457 126.058 -81.0614 122.331 5.07691e-006 2.71053e-007 -2.57904 15.5253 59.1827 -13.986 -8.13648 25.2326 3.48774 
51.2367 54.258 -5.12531 1.83247 -24.5716 5.31688 -1.10458 -0.852366 -0.842094 -2.21452 2.31241 -1.55635 -2.1981 3.95652 -1.52029 1.85711 40.7337 -0.771498 0.550056 1.0552 0.309365 101.588 7.12805 -3.09711 75.8113 18.4456 18.6367 4.88938e-006 4.19462e-006 7.03113e-006 -3.63863 -0.0254333 -1.99231 -4.11978e-006 -2.13651e-006 -3.01161 8.03009 -4.95138 0.69762 -77.5758 -5.08592 4.19734 -90.0228 32.3824 -3.63844 7.95139e-015 1.27222e-014 4.77083e-015 3.6563 -0.0274288 1.99258 1.37816e-005 -1.17915e-006 3.01161 -8.03009 -4.95139 -0.697626 170.387 66.0468 3.65421 180 1.52479e-005 177.837 -49.2824 78.5632 52.1342 -4.59875e-006 -2.04132e-007 2.87445 -17.5088 64.9488 17.2344 8.13649 25.2327 -3.48774 -177.771 65.8755 2.53378 4.54188e-006 -4.6773e-006 -2.46534 126.002 -81.0449 122.264 5.07691e-006 2.71053e-007 -2.58045 15.5283 59.1813 -13.9847 -8.13648 25.2326 3.48774 
